<?xml version="1.0" encoding="UTF-8"?>
<svg id="Layer_1" data-name="Layer 1" xmlns="http://www.w3.org/2000/svg" viewBox="0 0 80.11 34.87">
  <defs>
    <style>
      .cls-1 {
        fill: #f8981d;
      }
    </style>
  </defs>
  <path class="cls-1" d="M16.99,12.76c-.02-.42-.02-.91-.63-.9-.6.01-.59.51-.62.93-.07,1.23-.09,2.47-.18,3.7-.41,5.77-.48,11.54.16,17.3.05.43-.01,1,.62,1.03.66.03.63-.54.66-.97.4-4.59.96-9.18.44-13.04-.02-.14-.03-.28-.04-.43-.17-3.03-.29-5.32-.42-7.61Z"/>
  <path class="cls-1" d="M13.17,17.03c-.41-.01-.53.29-.58.66-.71,5.45-.65,10.9,0,16.35.04.36.14.69.54.71.4.02.54-.3.57-.67.22-2.53.45-5.06.68-7.62.05-.52.05-1.04,0-1.55-.23-2.4-.46-4.83-.68-7.26-.03-.34-.17-.61-.52-.62Z"/>
  <path class="cls-1" d="M24,17.09c-.11-2.8-.21-5.59-.32-8.39-.01-.27,0-.54-.05-.81-.06-.37-.32-.58-.69-.58-.38,0-.63.21-.72.57-.06.23-.04.48-.05.72-.16,4.93-.3,9.86-.48,14.8-.13,3.56.33,7.09.49,10.63.02.44.22.77.69.8.52.03.75-.3.79-.79.21-2.97.52-5.94.58-8.91.06-2.67-.16-5.35-.26-8.03,0,0,.01,0,.02,0Z"/>
  <path class="cls-1" d="M20.27,9.76c-.02-.46-.05-.97-.69-.97-.62,0-.66.49-.68.96-.11,2.95-.22,5.89-.34,8.84-.1,3.58-.38,7.15-.01,10.73.16,1.58.24,3.18.35,4.77.03.44.19.78.68.79.44,0,.62-.31.67-.71.03-.21.06-.42.07-.63.31-4.26.73-8.5.42-12.79-.26-3.66-.32-7.33-.48-11Z"/>
  <path class="cls-1" d="M.62,20.94c-.27.01-.29.25-.32.47l-.02.18c-.37,2.73-.36,5.49.02,8.21h0c.03.23.02.53.37.5.31-.03.31-.33.35-.55.12-.71.18-1.44.35-2.13.55-2.13-.14-4.17-.38-6.24-.02-.2-.09-.45-.36-.44Z"/>
  <path class="cls-1" d="M6.77,16.78c-.52,0-.44.49-.47.82-.12,1.2-.14,2.41-.33,3.59-.66,4.19.02,8.33.35,12.48.02.27.07.59.42.59.47,0,.39-.48.46-.8.11-.54.2-1.08.22-1.63.06-2.19.54-4.39.55-6.35,0-.17-.01-.34-.03-.51-.27-2.62-.51-5.02-.75-7.42-.03-.32.04-.76-.42-.77Z"/>
  <path class="cls-1" d="M3.57,18.2c-.27.01-.31.26-.33.47-.12,1.06-.23,2.12-.35,3.18-.27,2.54-.27,5.11,0,7.65.11,1.02.23,2.04.34,3.06.02.21.09.44.36.44.28,0,.31-.23.34-.44.09-.68.14-1.38.29-2.05.87-3.93.33-7.82-.28-11.72-.04-.25.01-.6-.39-.58Z"/>
  <path class="cls-1" d="M9.96,16.46c-.55-.03-.51.52-.53.88-.18,3.71-.92,7.4-.46,11.14.22,1.82.32,3.65.48,5.47.03.3.07.65.47.66.38,0,.47-.3.5-.62.22-2.34.44-4.67.66-7.01.08-.89.08-1.78,0-2.67-.21-2.31-.43-4.61-.64-6.92-.04-.38.03-.9-.49-.93Z"/>
  <path class="cls-1" d="M39.73,2.37c-.68-.07-1.1.49-1.12,1.43-.11,4.93-.21,9.87-.33,15.79-.2,4.01-.04,9,.32,13.98.05.73.32,1.25,1.11,1.25.69,0,1.03-.44,1.07-1.1.17-2.79.49-5.59.46-8.38-.07-7.19-.29-14.38-.45-21.57-.02-.76-.25-1.32-1.07-1.41Z"/>
  <path class="cls-1" d="M67.14,15.66c-.71.21-.81.08-.9-.61-1.43-10.94-13.03-17.86-23.3-13.95-.89.34-1.26.83-1.25,1.8.04,5.03.02,10.05.02,15.08s0,10.24,0,15.35c0,1.11.37,1.52,1.43,1.52,9.09,0,18.18.06,27.27-.04,4.15-.04,7.21-2.14,8.82-5.94,1.62-3.83.99-7.49-1.86-10.55-2.8-3-6.29-3.84-10.22-2.66Z"/>
  <path class="cls-1" d="M33.88,8.48c-.1-.54-.42-.89-.98-.87-.51.01-.83.34-.91.84-.05.29-.04.6-.04.9-.09,3.91-.18,7.82-.28,12.05-.32,3.9.14,8.1.29,12.31.02.59.23,1.09.91,1.13.68.04.99-.4,1.02-1.01.16-2.85.43-5.71.41-8.56-.04-5.42-.25-10.83-.4-16.25,0-.18,0-.36-.03-.54Z"/>
  <path class="cls-1" d="M37.53,14.15c-.04-2.86-.12-5.72-.17-8.58-.01-.72-.26-1.29-1.07-1.27-.77.02-.97.58-.98,1.26,0,.15,0,.3-.01.45-.08,4.03-.16,8.07-.26,12.1-.13,5.18-.11,10.35.26,15.53.05.67.24,1.22,1.02,1.22.76,0,1-.53,1.04-1.21.21-3.81.44-7.62.32-11.44-.07-2.22-.13-4.44-.14-6.67,0-.46,0-.93-.01-1.39Z"/>
  <path class="cls-1" d="M27.06,7.82c-.02-.58-.07-1.16-.8-1.18-.8-.02-.84.6-.85,1.21-.01.87-.06,1.74-.08,2.62-.15,7.73-.73,15.46.07,23.18.06.56.06,1.15.8,1.17.74.02.81-.54.86-1.12.49-5.46.68-10.93.32-15.31-.13-4.25-.24-7.41-.33-10.57Z"/>
  <path class="cls-1" d="M30.67,15.71c-.06-2.47-.14-4.93-.2-7.4-.02-.66-.13-1.29-.93-1.28-.8.02-.87.66-.88,1.31,0,.99-.05,1.98-.07,2.98-.17,7.43-.62,14.85.07,22.28.06.61.11,1.2.88,1.22.7.02.89-.49.93-1.08.33-4.48.59-8.96.33-13.45-.07-1.29-.12-2.59-.13-3.88,0-.23,0-.47,0-.7Z"/>
</svg>